<?xml version="1.0" encoding="utf-8"?>
<!-- Generator: Adobe Illustrator 16.0.0, SVG Export Plug-In . SVG Version: 6.00 Build 0)  -->
<!DOCTYPE svg PUBLIC "-//W3C//DTD SVG 1.1//EN" "http://www.w3.org/Graphics/SVG/1.1/DTD/svg11.dtd">
<svg version="1.1" id="attractie" xmlns="http://www.w3.org/2000/svg" xmlns:xlink="http://www.w3.org/1999/xlink" x="0px" y="0px"
	 width="594px" height="465px" viewBox="0 0 594 465" enable-background="new 0 0 594 465" xml:space="preserve">
<g id="a">
	<g id="Background">
	</g>
	<g id="Cart">
		<path fill="#2C4738" d="M377.7,53h-21.9v34.2h3.8c0,2.3,1.9,4.2,4.2,4.2s4.2-1.9,4.2-4.2h19.5c0,2.8,2.2,5,5,5s5-2.2,5-5h4.8V73.7
			L377.7,53z"/>
	</g>
	<g id="Top">
		<g id="Statief">
			<polygon fill="#2C4738" points="429,129.7 406.3,129.7 398.8,100.3 434.2,100.3 			"/>
			<rect x="409.9" y="127.7" fill="#283F32" width="15.1" height="26.8"/>
		</g>
		<path id="Rails" fill="#325644" d="M494.2,376.3c0-0.7-0.2-69.5-13-137.1c-11.3-59.5-34.7-130.4-82-130.4c0,0-123.001,0-169.101,0
			C155.9,108.8,0,286,0,286v-32c0,0,158.033-165.2,210.1-165.2s189.101,0,189.101,0c27.8,0,51.2,16.3,69.399,48.4
			c13.601,24,24.5,57.1,32.301,98.5c13.1,69.5,13.3,137.7,13.3,140.6H494.2z"/>
	</g>
	<g id="Tower">
		<g id="Detail">
			<path fill="#46776B" d="M405,240.2v-0.5c-0.3-18-7.6-34.8-20.4-47.5C371.7,179.6,354.7,172.6,336.7,172.6c-1,0-2,0-3,0.1h-0.5
				v-9.5H408.1V240.1H405V240.2z M364.7,171c15.6,6.3,28.6,17.6,37.1,32.1v-34.6h-37.1V171z"/>
			<path fill="#EAD88B" d="M407.6,163.8v75.9h-2c-0.699-37.4-31.199-67.6-68.8-67.6c-1,0-2,0-3,0.1v-8.4H407.6 M402.2,205v-37H364.1
				v3.4C380.4,177.8,393.9,189.7,402.2,205 M408.6,162.8h-1H333.7h-1v1v8.4v1h1c0.8,0,1.899-0.1,3-0.1c17.899,0,34.8,6.9,47.6,19.5
				c12.7,12.5,20,29.3,20.3,47.1v1h1h2h1v-1v-75.9V162.8L408.6,162.8z M365.2,168.9h36.1v32.3c-8.399-13.7-21.1-24.5-36.1-30.6
				V168.9L365.2,168.9z"/>
		</g>
		<path fill="#3D6D56" d="M269.9,244.9c-47.9-5.5-85.2-46.2-85.2-95.601h-11.4c0,55.7,42.3,101.601,96.6,107.101V244.9z"/>
		<g id="Pillars">
			<g id="pillar-right">
				<rect x="423.6" y="156.8" fill="#46776B" width="2.7" height="281"/>
				
					<rect x="416.917" y="158.071" transform="matrix(-0.7071 -0.7071 0.7071 -0.7071 593.3658 583.9222)" fill="#46776B" width="1.4" height="22"/>
				
					<rect x="416.956" y="171.431" transform="matrix(0.7071 -0.7071 0.7071 0.7071 -6.6694 348.7599)" fill="#46776B" width="1.4" height="22"/>
				
					<rect x="416.892" y="184.687" transform="matrix(-0.7071 -0.7071 0.7071 -0.7071 574.5026 629.3418)" fill="#46776B" width="1.4" height="22.002"/>
				
					<rect x="416.946" y="212.911" transform="matrix(-0.7066 -0.7076 0.7076 -0.7066 554.3016 677.6617)" fill="#46776B" width="1.4" height="22.001"/>
				
					<rect x="416.991" y="199.017" transform="matrix(0.7071 -0.7071 0.7071 0.7071 -26.1657 356.8651)" fill="#46776B" width="1.4" height="22"/>
				
					<rect x="416.934" y="277.777" transform="matrix(-0.7071 -0.7071 0.7071 -0.7071 508.7494 788.2846)" fill="#46776B" width="1.4" height="22"/>
				
					<rect x="416.936" y="291.174" transform="matrix(0.7082 -0.7061 0.7061 0.7082 -91.4675 383.0646)" fill="#46776B" width="1.4" height="22.001"/>
				
					<rect x="416.9" y="263.987" transform="matrix(0.7075 -0.7068 0.7068 0.7075 -72.183 375.5889)" fill="#46776B" width="1.401" height="22.002"/>
				
					<rect x="416.903" y="304.398" transform="matrix(-0.7071 -0.7071 0.7071 -0.7071 489.8722 833.7096)" fill="#46776B" width="1.4" height="22.002"/>
				
					<rect x="416.886" y="332.693" transform="matrix(-0.7068 -0.7075 0.7075 -0.7068 469.57 882.0256)" fill="#46776B" width="1.4" height="22.002"/>
				
					<rect x="416.937" y="318.685" transform="matrix(0.7068 -0.7075 0.7075 0.7068 -110.769 392.1375)" fill="#46776B" width="1.4" height="22"/>
				
					<rect x="416.918" y="359.108" transform="matrix(-0.7071 -0.7071 0.7071 -0.7071 451.2131 927.1163)" fill="#46776B" width="1.4" height="22.002"/>
				
					<rect x="416.972" y="345.168" transform="matrix(0.7068 -0.7075 0.7075 0.7068 -129.4941 399.9274)" fill="#46776B" width="1.4" height="22"/>
				<rect x="408.6" y="156.8" fill="#46776B" width="2.7" height="281"/>
			</g>
			<g id="pillar-horizontal">
				<rect x="255.3" y="241.4" fill="#46776B" width="152.3" height="1.899"/>
				
					<rect x="275.867" y="239.698" transform="matrix(-0.7066 0.7076 -0.7076 -0.7066 646.7116 226.6586)" fill="#46776B" width="1.001" height="15.4"/>
				
					<rect x="285.312" y="239.73" transform="matrix(-0.7061 -0.7081 0.7081 -0.7061 312.4312 624.5255)" fill="#46776B" width="1" height="15.4"/>
				
					<rect x="265.817" y="239.716" transform="matrix(-0.7059 -0.7083 0.7083 -0.7059 279.0561 610.7029)" fill="#46776B" width="1.001" height="15.399"/>
				
					<rect x="294.479" y="239.73" transform="matrix(-0.7074 0.7069 -0.7069 -0.7074 678.5314 213.9407)" fill="#46776B" width="1" height="15.4"/>
				
					<rect x="314.364" y="239.695" transform="matrix(-0.7081 0.7061 -0.7061 -0.7081 712.506 200.2357)" fill="#46776B" width="1" height="15.4"/>
				
					<rect x="304.624" y="239.701" transform="matrix(-0.7066 -0.7076 0.7076 -0.7066 345.6716 638.1234)" fill="#46776B" width="1.001" height="15.4"/>
				
					<rect x="333.573" y="239.718" transform="matrix(-0.7076 0.7066 -0.7066 -0.7076 745.2923 186.4261)" fill="#46776B" width="1.001" height="15.4"/>
				
					<rect x="343.019" y="239.713" transform="matrix(-0.7066 -0.7076 0.7076 -0.7066 411.1881 665.3112)" fill="#46776B" width="1.001" height="15.4"/>
				
					<rect x="323.933" y="239.684" transform="matrix(-0.7066 -0.7076 0.7076 -0.7066 378.634 651.7563)" fill="#46776B" width="0.999" height="15.399"/>
				
					<rect x="352.255" y="239.673" transform="matrix(-0.7071 0.7071 -0.7071 -0.7071 777.1106 172.8573)" fill="#46776B" width="1" height="15.4"/>
				
					<rect x="372.07" y="239.709" transform="matrix(-0.7066 0.7076 -0.7076 -0.7066 810.9 158.6047)" fill="#46776B" width="1.001" height="15.4"/>
				
					<rect x="362.333" y="239.684" transform="matrix(-0.7076 -0.7066 0.7066 -0.7076 444.7657 678.8158)" fill="#46776B" width="1.001" height="15.4"/>
				
					<rect x="390.66" y="239.688" transform="matrix(-0.7076 0.7066 -0.7066 -0.7076 842.7526 146.0365)" fill="#46776B" width="1.001" height="15.399"/>
				
					<rect x="380.92" y="239.708" transform="matrix(-0.7066 -0.7076 0.7076 -0.7066 475.8744 692.1225)" fill="#46776B" width="1.001" height="15.4"/>
				<rect x="255.3" y="251.9" fill="#46776B" width="152.3" height="1.899"/>
			</g>
			<g id="pillar-diagonal-2">
				
					<rect x="359.63" y="218.544" transform="matrix(0.7071 0.7071 -0.7071 0.7071 313.9911 -168.6549)" fill="#46776B" width="1.9" height="152.299"/>
				<rect x="317.6" y="336.7" fill="#46776B" width="15.4" height="1"/>
				<rect x="331.4" y="322.8" fill="#46776B" width="1" height="15.4"/>
				<rect x="317.6" y="336.6" fill="#46776B" width="1" height="15.4"/>
				<rect x="330.7" y="323.5" fill="#46776B" width="15.399" height="1"/>
				<rect x="344.8" y="309.5" fill="#46776B" width="15.4" height="1"/>
				<rect x="345.1" y="309.2" fill="#46776B" width="1" height="15.399"/>
				<rect x="358.4" y="295.9" fill="#46776B" width="15.399" height="1"/>
				<rect x="372.2" y="282" fill="#46776B" width="1" height="15.4"/>
				<rect x="358.7" y="295.5" fill="#46776B" width="1" height="15.4"/>
				<rect x="371.5" y="282.7" fill="#46776B" width="15.4" height="1"/>
				<rect x="385.6" y="268.7" fill="#46776B" width="15.4" height="1"/>
				<rect x="385.9" y="268.3" fill="#46776B" width="1" height="15.4"/>
				<rect x="398.7" y="255.5" fill="#46776B" width="15.399" height="1"/>
				<rect x="399" y="255.2" fill="#46776B" width="1" height="15.399"/>
				
					<rect x="367.005" y="225.982" transform="matrix(0.7071 0.7071 -0.7071 0.7071 321.4105 -171.6909)" fill="#46776B" width="1.899" height="152.299"/>
			</g>
			<g id="pillar-diagonal-1">
				
					<rect x="318.279" y="218.487" transform="matrix(-0.707 0.7072 -0.7072 -0.707 753.2953 277.1682)" fill="#46776B" width="1.9" height="152.299"/>
				<rect x="346.8" y="336.7" fill="#46776B" width="15.4" height="1"/>
				<rect x="347.4" y="322.8" fill="#46776B" width="1" height="15.4"/>
				<rect x="361.2" y="336.6" fill="#46776B" width="1" height="15.4"/>
				<rect x="333.6" y="323.5" fill="#46776B" width="15.4" height="1"/>
				<rect x="319.6" y="309.5" fill="#46776B" width="15.4" height="1"/>
				<rect x="333.7" y="309.2" fill="#46776B" width="1" height="15.399"/>
				<rect x="306" y="295.9" fill="#46776B" width="15.4" height="1"/>
				<rect x="306.6" y="282" fill="#46776B" width="1" height="15.4"/>
				<rect x="320.1" y="295.5" fill="#46776B" width="1" height="15.4"/>
				<rect x="292.8" y="282.7" fill="#46776B" width="15.4" height="1"/>
				<rect x="278.8" y="268.7" fill="#46776B" width="15.4" height="1"/>
				<rect x="292.9" y="268.3" fill="#46776B" width="1" height="15.4"/>
				<rect x="265.7" y="255.5" fill="#46776B" width="15.4" height="1"/>
				<rect x="279.8" y="255.2" fill="#46776B" width="1" height="15.399"/>
				
					<rect x="310.763" y="225.939" transform="matrix(-0.7071 0.7071 -0.7071 -0.7071 745.736 295.2818)" fill="#46776B" width="1.9" height="152.298"/>
			</g>
			<g id="pillar-left">
				<rect x="268.6" y="156.3" fill="#46776B" width="2.7" height="281"/>
				
					<rect x="261.993" y="157.632" transform="matrix(-0.7071 -0.7071 0.7071 -0.7071 329.2055 473.6246)" fill="#46776B" width="1.4" height="22"/>
				
					<rect x="261.91" y="170.992" transform="matrix(0.7069 -0.7073 0.7073 0.7069 -51.7565 239.0751)" fill="#46776B" width="1.4" height="22"/>
				
					<rect x="261.962" y="184.24" transform="matrix(-0.7068 -0.7075 0.7075 -0.7068 310.1756 519.0491)" fill="#46776B" width="1.4" height="22.001"/>
				
					<rect x="262.015" y="212.463" transform="matrix(-0.7068 -0.7075 0.7075 -0.7068 290.3 567.2578)" fill="#46776B" width="1.4" height="22.001"/>
				
					<rect x="261.946" y="198.578" transform="matrix(0.7071 -0.7071 0.7071 0.7071 -71.2666 247.1029)" fill="#46776B" width="1.4" height="22"/>
				
					<rect x="262.01" y="277.338" transform="matrix(-0.7069 -0.7073 0.7073 -0.7069 244.4931 677.9834)" fill="#46776B" width="1.4" height="22"/>
				
					<rect x="261.899" y="290.727" transform="matrix(0.7075 -0.7068 0.7068 0.7075 -136.4265 273.8624)" fill="#46776B" width="1.4" height="22.002"/>
				
					<rect x="261.863" y="263.541" transform="matrix(0.7076 -0.7066 0.7066 0.7076 -117.2207 265.7908)" fill="#46776B" width="1.4" height="22.001"/>
				
					<rect x="261.972" y="303.951" transform="matrix(-0.7068 -0.7075 0.7075 -0.7068 225.5034 723.3751)" fill="#46776B" width="1.4" height="22.001"/>
				
					<rect x="261.955" y="332.246" transform="matrix(-0.7069 -0.7073 0.7073 -0.7069 205.5622 771.6695)" fill="#46776B" width="1.4" height="22.001"/>
				
					<rect x="261.892" y="318.247" transform="matrix(0.7069 -0.7073 0.7073 0.7069 -155.9126 282.2181)" fill="#46776B" width="1.4" height="21.999"/>
				
					<rect x="261.988" y="358.661" transform="matrix(-0.7068 -0.7075 0.7075 -0.7068 186.8252 816.7628)" fill="#46776B" width="1.4" height="22.001"/>
				
					<rect x="261.926" y="344.729" transform="matrix(0.7069 -0.7073 0.7073 0.7069 -174.6331 290.0034)" fill="#46776B" width="1.4" height="21.999"/>
				<rect x="253.6" y="156.3" fill="#46776B" width="2.7" height="281"/>
			</g>
		</g>
		<g id="Hekje-2">
			<rect x="381.5" y="138.4" fill="#3D6D56" width="67.5" height="1.1"/>
			<g>
				<rect x="381.2" y="125.4" fill="#3D6D56" width="67.899" height="1.1"/>
				<rect x="381.2" y="131.6" fill="#3D6D56" width="67.899" height="1.1"/>
				<g>
					<path fill="#4C8469" d="M382.6,145.9c0,0.7-0.5,1.2-1.1,1.2l0,0c-0.6,0-1.1-0.5-1.1-1.2v-22.7c0-0.7,0.5-1.2,1.1-1.2l0,0
						c0.6,0,1.1,0.5,1.1,1.2V145.9z"/>
					<circle fill="#EAD88C" cx="381.5" cy="120.1" r="1.9"/>
				</g>
				<g>
					<path fill="#4C8469" d="M416.1,145.9c0,0.7-0.5,1.2-1.1,1.2l0,0c-0.6,0-1.1-0.5-1.1-1.2v-22.7c0-0.7,0.5-1.2,1.1-1.2l0,0
						c0.6,0,1.1,0.5,1.1,1.2V145.9z"/>
					<circle fill="#EAD88C" cx="415" cy="120.1" r="1.9"/>
				</g>
				<g>
					<path fill="#4C8469" d="M450.1,145.9c0,0.7-0.5,1.2-1.1,1.2l0,0c-0.6,0-1.1-0.5-1.1-1.2v-22.7c0-0.7,0.5-1.2,1.1-1.2l0,0
						c0.6,0,1.1,0.5,1.1,1.2V145.9z"/>
					<circle fill="#EAD88C" cx="449" cy="120.1" r="1.9"/>
				</g>
			</g>
		</g>
		<g id="Hekje">
			<rect x="47.6" y="137.4" fill="#3D6D56" width="140.4" height="1.1"/>
			<g>
				<rect x="47.6" y="124.4" fill="#3D6D56" width="140.4" height="1.1"/>
				<rect x="47.6" y="130.6" fill="#3D6D56" width="140.4" height="1.1"/>
				<g>
					<path fill="#4C8469" d="M48.8,144.9c0,0.7-0.5,1.2-1.1,1.2l0,0c-0.6,0-1.1-0.5-1.1-1.2v-22.7c0-0.7,0.5-1.2,1.1-1.2l0,0
						c0.6,0,1.1,0.5,1.1,1.2V144.9z"/>
					<circle fill="#EAD88C" cx="47.6" cy="119.1" r="1.9"/>
				</g>
				<g>
					<path fill="#4C8469" d="M87.6,144.9c0,0.7-0.5,1.2-1.1,1.2l0,0c-0.6,0-1.1-0.5-1.1-1.2v-22.7c0-0.7,0.5-1.2,1.1-1.2l0,0
						c0.6,0,1.1,0.5,1.1,1.2V144.9z"/>
					<circle fill="#EAD88C" cx="86.5" cy="119.1" r="1.9"/>
				</g>
				<g>
					<path fill="#4C8469" d="M121.6,144.9c0,0.7-0.5,1.2-1.1,1.2l0,0c-0.6,0-1.1-0.5-1.1-1.2v-22.7c0-0.7,0.5-1.2,1.1-1.2l0,0
						c0.6,0,1.1,0.5,1.1,1.2V144.9z"/>
					<circle fill="#EAD88C" cx="120.5" cy="119.1" r="1.9"/>
				</g>
				<g>
					<path fill="#4C8469" d="M155.1,144.9c0,0.7-0.5,1.2-1.1,1.2l0,0c-0.6,0-1.1-0.5-1.1-1.2v-22.7c0-0.7,0.5-1.2,1.1-1.2l0,0
						c0.6,0,1.1,0.5,1.1,1.2V144.9z"/>
					<circle fill="#EAD88C" cx="154" cy="119.1" r="1.9"/>
				</g>
				<g>
					<path fill="#4C8469" d="M189.1,144.9c0,0.7-0.5,1.2-1.1,1.2l0,0c-0.6,0-1.1-0.5-1.1-1.2v-22.7c0-0.7,0.5-1.2,1.1-1.2l0,0
						c0.6,0,1.1,0.5,1.1,1.2V144.9z"/>
					<circle fill="#EAD88C" cx="188" cy="119.1" r="1.9"/>
				</g>
			</g>
		</g>
		<g id="platform">
			<path id="base" fill="#46776B" d="M42.1,163h399.7c0,0,0-3.2,2.5-5.8c2.5-2.6,7-3.5,7-3.5v-9.2H34.2v9.2c0,0,4.4,2.1,6.2,4
				C42.2,159.6,42.1,163,42.1,163z"/>
			<path id="gold-middle" fill="#EAD88C" d="M452.8,153.8c0,0.4-0.7,0.8-1.5,0.8H32.5c-0.9,0-1.5-0.3-1.5-0.8l0,0
				c0-0.4,0.7-0.8,1.5-0.8h418.7C452.1,153,452.8,153.3,452.8,153.8L452.8,153.8z"/>
			<path id="gold-bottom" fill="#EAD88C" d="M444.5,163c0,0.4-0.7,0.8-1.5,0.8H42.8c-0.8,0-1.5-0.3-1.5-0.8l0,0
				c0-0.4,0.7-0.8,1.5-0.8H443C443.8,162.2,444.5,162.6,444.5,163L444.5,163z"/>
			<path id="gold-top" fill="#EAD88C" d="M452.8,145.3c0,0.4-0.7,0.8-1.5,0.8H32.5c-0.9,0-1.5-0.4-1.5-0.8l0,0
				c0-0.4,0.7-0.8,1.5-0.8h418.7C452.1,144.5,452.8,144.9,452.8,145.3L452.8,145.3z"/>
		</g>
		<g id="crossings">
			<g id="crossing-right">
				<path fill="#46776B" d="M407.8,266.3l-2.3-2.399c0.6-0.7,0.9-1.601,0.9-2.5c0-2.2-1.801-3.9-3.9-3.9c-0.8,0-1.6,0.3-2.3,0.8
					l-1.8-1.899V251.6c1.899-0.199,3.399-1.899,3.399-3.899s-1.5-3.601-3.399-3.9v-2.2l9.399-10h18.7v34.8h-18.7V266.3z"/>
				<path fill="#EAD88B" d="M426,232v33.8h-18l-1.8-1.899c0.5-0.7,0.7-1.601,0.7-2.4c0-2.4-2-4.4-4.4-4.4c-0.8,0-1.6,0.2-2.2,0.601
					l-1.399-1.5V252c2-0.5,3.399-2.2,3.399-4.3c0-2.101-1.5-3.9-3.399-4.3V241.8l9.1-9.7h18 M427,231h-19.4l-9.699,10.3v2.9
					c1.899,0,3.399,1.5,3.399,3.399c0,1.9-1.5,3.4-3.399,3.4v5.5l2.3,2.4c0.6-0.601,1.399-0.9,2.3-0.9c1.9,0,3.4,1.5,3.4,3.4
					c0,1-0.4,1.899-1.101,2.5l2.7,2.899H427V231L427,231z"/>
			</g>
			<g id="crossing-left">
				<path fill="#46776B" d="M253.5,266.3v-34.8h18.7l9.4,10v2.2c-1.9,0.2-3.4,1.899-3.4,3.899s1.5,3.601,3.4,3.9v4.8l-1.8,1.9
					c-0.7-0.5-1.5-0.8-2.3-0.8c-2.2,0-3.9,1.8-3.9,3.899c0,0.9,0.3,1.8,0.9,2.5l-2.3,2.4h-18.7V266.3z"/>
				<path fill="#EAD88B" d="M272,232l9.1,9.7v1.6c-2,0.5-3.4,2.2-3.4,4.3c0,2.101,1.5,3.9,3.4,4.301v4.199l-1.4,1.5
					c-0.7-0.399-1.4-0.6-2.2-0.6c-2.4,0-4.4,2-4.4,4.4c0,0.899,0.3,1.699,0.7,2.399l-1.8,1.9h-18V232H272 M272.4,231H253v35.8h19.4
					l2.7-2.899c-0.7-0.601-1.1-1.5-1.1-2.5c0-1.9,1.5-3.4,3.4-3.4c0.9,0,1.7,0.4,2.3,0.9l2.3-2.4V251c-1.9,0-3.4-1.5-3.4-3.4
					c0-1.899,1.5-3.399,3.4-3.399v-2.9L272.4,231L272.4,231z"/>
			</g>
			<path id="middle-cross" fill="#46776B" stroke="#EAD88B" stroke-miterlimit="10" d="M351.3,315.3c-0.6,0.601-1.399,0.9-2.2,0.9
				c-1.8,0-3.199-1.4-3.199-3.2c0-0.9,0.399-1.7,0.899-2.2l-2.3-2.3h-9.3l-2.3,2.3c0.6,0.601,0.899,1.4,0.899,2.2
				c0,1.8-1.399,3.2-3.2,3.2c-0.899,0-1.699-0.4-2.199-0.9l-2.5,2.5v9.3l2.5,2.5c0.6-0.6,1.399-0.899,2.199-0.899
				c1.801,0,3.2,1.399,3.2,3.2c0,0.899-0.3,1.699-0.899,2.199l2.3,2.301h9.3l2.3-2.301c-0.6-0.6-0.899-1.399-0.899-2.199
				c0-1.801,1.399-3.2,3.199-3.2c0.9,0,1.7,0.399,2.2,0.899l2.5-2.5v-9.3L351.3,315.3z"/>
		</g>
		<circle id="rondje" fill="none" stroke="#EAD88B" stroke-width="2" stroke-miterlimit="10" cx="392.2" cy="177.6" r="8.3"/>
	</g>
	<g id="Torentje">
		<g id="Tower_1_">
			<rect x="457.3" y="210.4" fill="#4C8469" width="20.2" height="12.8"/>
			<rect x="457.3" y="185.1" fill="#4C8469" width="20.2" height="6.4"/>
			<rect x="458" y="185.3" fill="#DDCD96" width="18.8" height="5.7"/>
			<rect x="457.3" y="184.9" fill="#4C8469" width="1.4" height="28.7"/>
			<rect x="476.1" y="184.9" fill="#4C8469" width="1.4" height="28.7"/>
			<rect x="461.1" y="184.9" fill="#4C8469" width="0.7" height="28.7"/>
			<rect x="473.1" y="184.7" fill="#4C8469" width="0.7" height="28.9"/>
			<g>
				<path fill="#3D6D56" d="M466.4,241.6c-0.9-3.899-1.9-7-3-9c-2.301-4.3-6.801-8.4-7.9-9.3h23.8c-1.2,0.9-5.7,4.7-7.899,9.3
					c-1,2.2-2,5.2-2.9,9H466.4z"/>
				<path fill="#EFDC8E" d="M478.9,223.4c-1.5,1.2-5.601,4.8-7.601,9.2c-1,2.1-2,5.1-2.899,8.9h-1.9c-0.9-3.9-1.9-6.9-3-8.9
					c-2.2-4-6.3-7.9-7.7-9.2H478.9 M479.7,223.1h-24.5c0,0,5.5,4.6,8.1,9.5c1.3,2.4,2.3,6,3,9h2.3c0.7-2.899,1.7-6.399,2.9-9
					C474,227.3,479.7,223.1,479.7,223.1L479.7,223.1z"/>
			</g>
			<path fill="#EAD88B" d="M479.7,223.1c0,0.5-0.4,0.9-0.9,0.9H456c-0.5,0-0.9-0.4-0.9-0.9l0,0c0-0.5,0.4-0.9,0.9-0.9h22.8
				C479.3,222.3,479.7,222.6,479.7,223.1L479.7,223.1z"/>
			<path fill="#EAD88B" d="M478.4,210.4c0,0.3-0.4,0.5-0.801,0.5H457.2c-0.4,0-0.8-0.2-0.8-0.5l0,0c0-0.3,0.399-0.5,0.8-0.5H477.6
				C478.1,210,478.4,210.2,478.4,210.4L478.4,210.4z"/>
			<path fill="#EAD88B" d="M468.4,245.3c-0.101-0.1-0.101-0.2-0.2-0.3c0.5-0.3,0.8-0.8,0.8-1.4c0-0.6-0.3-1.1-0.8-1.399
				c0.1-0.101,0.1-0.2,0.2-0.3h0.199c0.101,0,0.2-0.101,0.2-0.2c0-0.101-0.1-0.2-0.2-0.2h-2.5c-0.1,0-0.199,0.1-0.199,0.2
				c0,0.1,0.1,0.2,0.199,0.2h0.2c0.101,0.1,0.101,0.199,0.2,0.3c-0.5,0.3-0.8,0.8-0.8,1.399c0,0.601,0.3,1.2,0.8,1.4
				c-0.1,0.1-0.1,0.2-0.2,0.3c-0.399,0.101-0.7,0.2-0.7,0.3c0,0.5,0.4,0.801,0.7,2.101c-0.399,0.1-0.7,0.2-0.7,0.3
				c0,0.6,0.601-0.1,0.801,2c0.3,2.4,0.8,7.2,0.8,7.2s0.5-4.9,0.899-7.2c0.301-2.2,0.801-1.3,0.801-1.9c0-0.1-0.301-0.199-0.7-0.3
				c0.3-1.399,0.7-1.6,0.7-2.1C469.1,245.5,468.8,245.4,468.4,245.3z"/>
			<path fill="#3D6D56" d="M457.2,185.3H477.6c0.5,0,1-0.6,1-1.3h-22.3C456.3,184.8,456.7,185.3,457.2,185.3z"/>
			<path fill="#DBCB86" d="M456.1,184.1H478.7c0.6,0,1.1-0.8,1.1-1.7h-24.7C455.1,183.3,455.6,184.1,456.1,184.1z"/>
			<path fill="#EAD88B" d="M472.1,171.3c-3.199-6-4.699-6.8-4.699-6.8l0,0c0,0-1.5,0.8-4.7,6.8c-3.2,6.1-8.8,11.2-8.8,11.2h13.5l0,0
				h13.5C480.9,182.5,475.3,177.4,472.1,171.3z"/>
			<path fill="#EFDC8F" d="M470,166.2c-0.9-2.1-1.2-11.7-2.5-11.7s-1.7,9.6-2.5,11.7c-1.7,4.2-4.8,7.8-4.8,7.8h7.399l0,0h7.4
				C474.8,174,471.7,170.5,470,166.2z"/>
			<path fill="#EFDC8F" d="M466.4,155.9c0.1,0.1,0.1,0.2,0.199,0.3c-0.5,0.3,2.101,0.3,1.601,0c0.1-0.1,0.1-0.2,0.2-0.3
				c0.399-0.1,0.699-0.2,0.699-0.3c0-0.5-0.399-0.8-0.699-2.1c0.399-0.1,0.699-0.2,0.699-0.3c0-0.6-0.8,0.1-1.1-2.1
				c-0.3-2.4-0.6-17.7-0.6-17.7s-0.301,15.5-0.601,17.8c-0.3,2.2-1.1,1.3-1.1,2c0,0.1,0.3,0.2,0.7,0.3c-0.301,1.4-0.7,1.6-0.7,2.1
				C465.7,155.8,466,155.9,466.4,155.9z"/>
			<path fill="#EFDC8F" d="M480.2,139.5c0,0-3.3,0.2-7.4,0.2c-4.1,0-7.399-0.2-7.399-0.2s3.3-0.2,7.399-0.2
				C476.9,139.3,480.2,139.5,480.2,139.5z"/>
			<path fill="#EFDC8F" d="M480.2,145.3c0,0-4.4,0.2-9.8,0.2c-5.4,0-9.801-0.2-9.801-0.2s4.4-0.2,9.801-0.2
				C475.8,145.1,480.2,145.3,480.2,145.3z"/>
		</g>
		<path id="Houder" fill="#46776B" d="M427,197v33.5c0,0,6.7,0.9,11.2-3.9c4.5-4.8,4.399-9.8,4.399-9.8h4.2c0-0.1,0-0.3,0-0.4
			c0-6.3,4.2-11.5,9.7-12.9V197H427z M446,206.1c-0.6,0.9-1,1.8-1.4,2.7h-6.1v-8.9h7.5V206.1z M437.7,199.9v8.9h-7.4v-8.9H437.7z
			 M437.7,209.7v7.2h-7.4v-7.2H437.7z M430.3,226.3v-8.6h7.4v3.5c-0.3,0.7-0.7,1.4-1.101,2C435,225.5,430.3,226.3,430.3,226.3z
			 M438.5,217.7h0.2c-0.101,0.4-0.101,0.8-0.2,1.2V217.7z M439,214.5c0,0,0,0.9-0.2,2.3H438.4v-7.2h5.8c-0.9,2.6-1,4.8-1,4.9H439z
			 M446.8,205.1V200h6.8C453.6,199.9,449.4,202,446.8,205.1z"/>
	</g>
	<g id="SpinningWheel">
		<g id="Wheel">
			<path fill="#8F3217" d="M298,71.3c-41.7-6.5-80.9,22-87.4,63.8c-6.5,41.7,22,80.9,63.8,87.4c41.7,6.5,80.9-22,87.4-63.8
				C368.3,116.9,339.8,77.8,298,71.3z M349.9,153.4l-56.2-8.8l45.7-33.4C347.5,123.3,351.5,138.1,349.9,153.4z M299,84.1
				c15.1,3.1,27.9,11.2,37,22.4l-45.7,33.4L299,84.1z M273.5,209.6c-15.3-3.1-28.2-11.5-37.3-22.9l46.1-33.7L273.5,209.6z
				 M251.1,93.3c12-7.9,26.8-11.8,42.1-10.1l-8.7,55.8L251.1,93.3z M288.1,153.9l33.7,46.1c-12.1,8.1-27,12.1-42.5,10.4L288.1,153.9
				z M246.4,96.8l33.4,45.7l-56.2-8.8C226.7,118.6,235.1,105.8,246.4,96.8z M222.7,139.5l56.2,8.8L232.7,182
				C224.7,169.8,220.9,154.9,222.7,139.5z M326.5,196.6l-33.7-46.1l56.2,8.8C346,174.5,337.8,187.5,326.5,196.6z"/>
		</g>
		<path id="wheelCase" fill="#9F3C16" d="M286.2,64c-45.8,0-82.9,37.1-82.9,82.9c0,45.8,37.1,82.9,82.9,82.9
			c45.8,0,82.899-37.1,82.899-82.9C369.1,101.1,332,64,286.2,64z M286.2,216.2c-38.3,0-69.3-31-69.3-69.3c0-38.3,31-69.3,69.3-69.3
			c38.3,0,69.3,31,69.3,69.3C355.5,185.1,324.5,216.2,286.2,216.2z"/>
		<g id="turningPoint">
			<circle id="Outer" fill="#9F3C16" cx="286.2" cy="146.4" r="20.5"/>
			<circle id="Inner" fill="#AF3D1E" cx="286.2" cy="146.4" r="14.1"/>
		</g>
		<path id="Case" fill="#46776B" d="M200.1,146.4c0,47.6,38.6,86.2,86.2,86.2c47.601,0,86.2-38.6,86.2-86.2H200.1z"/>
		<path id="logoPlate" fill="#EAD88C" d="M216.8,148.2c0,38.3,31.1,69.4,69.4,69.4c38.3,0,69.399-31.1,69.399-69.4H216.8z"/>
		<path id="rand" fill="#4E8274" d="M377,147c0,1-0.8,1.7-1.7,1.7H197.2c-1,0-1.7-0.8-1.7-1.7v-1.7c0-1,0.8-1.7,1.7-1.7h178.1
			c1,0,1.7,0.8,1.7,1.7V147z"/>
	</g>
	<g id="Layer_7">
	</g>
</g>
</svg>
