<?xml version="1.0" encoding="utf-8"?>
<!-- Generator: Adobe Illustrator 16.0.0, SVG Export Plug-In . SVG Version: 6.00 Build 0)  -->
<!DOCTYPE svg PUBLIC "-//W3C//DTD SVG 1.1//EN" "http://www.w3.org/Graphics/SVG/1.1/DTD/svg11.dtd" [
	<!ENTITY ns_flows "http://ns.adobe.com/Flows/1.0/">
	<!ENTITY ns_extend "http://ns.adobe.com/Extensibility/1.0/">
	<!ENTITY ns_ai "http://ns.adobe.com/AdobeIllustrator/10.0/">
	<!ENTITY ns_graphs "http://ns.adobe.com/Graphs/1.0/">
]>
<svg version="1.1" xmlns:x="&ns_extend;" xmlns:i="&ns_ai;" xmlns:graph="&ns_graphs;"
	 xmlns="http://www.w3.org/2000/svg" xmlns:xlink="http://www.w3.org/1999/xlink" xmlns:a="http://ns.adobe.com/AdobeSVGViewerExtensions/3.0/"
	 x="0px" y="0px" width="841.9px" height="595.3px" viewBox="0 0 841.9 595.3" style="enable-background:new 0 0 841.9 595.3;"
	 xml:space="preserve">
<style type="text/css">
<![CDATA[
	.st0{fill:#46776B;}
	.st1{fill:#AF3D1E;}
	.st2{fill:#4C8469;}
	.st3{fill:#4E8274;}
	.st4{fill:#EAD88B;}
	.st5{fill:#EAD88C;}
	.st6{fill:#EFDC8E;}
	.st7{fill:#EFDC8F;}
	.st8{fill:#8F3217;}
	.st9{fill:#283F32;}
	.st10{fill:#2C4738;}
	.st11{fill:#46776B;stroke:#EAD88B;stroke-miterlimit:10;}
	.st12{display:inline;fill:#333333;}
	.st13{display:inline;}
	.st14{fill:#9F3C16;}
	.st15{fill:#325644;}
	.st16{fill:none;stroke:#EAD88B;stroke-width:2;stroke-miterlimit:10;}
	.st17{fill:#3D6D56;}
	.st18{display:inline;opacity:0.5;fill:#449AD5;}
	.st19{display:none;}
	.st20{fill:#DBCB86;}
	.st21{fill:#DDCD96;}
]]>
</style>
<g id="Referentie" class="st19">
	<g id="hMO4XW.tif" class="st13">
		
			<image style="overflow:visible;" width="4961" height="2270" id="Layer_0_1_" xlink:href="7032B75FFFCB796F.png"  transform="matrix(0.3742 0 0 0.3742 -952.709 45.7432)">
		</image>
	</g>
</g>
<g id="Background" class="st19">
	<ellipse class="st18" cx="551.4" cy="299.6" rx="194.6" ry="193"/>
</g>
<g id="Karretje">
	<path class="st10" d="M506.7,164h-21.9v34.2h3.8c0,2.3,1.9,4.2,4.2,4.2s4.2-1.9,4.2-4.2h19.5c0,2.8,2.2,5,5,5s5-2.2,5-5h4.8v-13.5
		L506.7,164z"/>
</g>
<g id="Top">
	<g id="Statief">
		<polygon class="st10" points="558,240.7 535.3,240.7 527.8,211.3 563.2,211.3 		"/>
		<rect x="538.9" y="238.7" class="st9" width="15.1" height="26.8"/>
	</g>
	<path id="Rails" class="st15" d="M623.2,487.3c0-0.7-0.2-69.5-13-137.1c-11.3-59.5-34.7-130.4-82-130.4H393.9v-20h134.3
		c27.8,0,51.2,16.3,69.4,48.4c13.6,24,24.5,57.1,32.3,98.5c13.1,69.5,13.3,137.7,13.3,140.6L623.2,487.3z"/>
</g>
<g id="Tower">
	<g id="Detail">
		<path class="st0" d="M534,351.2l0-0.5c-0.3-18-7.6-34.8-20.4-47.5c-12.9-12.6-29.9-19.6-47.9-19.6c-1,0-2,0-3,0.1l-0.5,0v-9.5
			h74.9v76.9H534z M493.7,282c15.6,6.3,28.6,17.6,37.1,32.1v-34.6h-37.1V282z"/>
		<path class="st4" d="M536.6,274.8v75.9h-2c-0.7-37.4-31.2-67.6-68.8-67.6c-1,0-2,0-3,0.1v-8.4H536.6 M531.2,316v-37h-38.1v3.4
			C509.4,288.8,522.9,300.7,531.2,316 M537.6,273.8h-1h-73.9h-1v1v8.4v1l1,0c0.8,0,1.9-0.1,3-0.1c17.9,0,34.8,6.9,47.6,19.5
			c12.7,12.5,20,29.3,20.3,47.1l0,1h1h2h1v-1v-75.9V273.8L537.6,273.8z M494.2,279.9h36.1v32.3c-8.4-13.7-21.1-24.5-36.1-30.6V279.9
			L494.2,279.9z"/>
	</g>
	<path class="st17" d="M398.9,355.9c-47.9-5.5-85.2-46.2-85.2-95.6h-11.4c0,55.7,42.3,101.6,96.6,107.1V355.9z"/>
	<g id="Pillars">
		<g id="pillar-right">
			<rect x="552.6" y="267.8" class="st0" width="2.7" height="281"/>
			
				<rect x="545.9" y="269.1" transform="matrix(0.7071 0.7071 -0.7071 0.7071 358.175 -304.4902)" class="st0" width="1.4" height="22"/>
			
				<rect x="545.9" y="282.5" transform="matrix(-0.7071 0.7071 -0.7071 -0.7071 1140.6917 114.4637)" class="st0" width="1.4" height="22"/>
			
				<rect x="545.9" y="295.7" transform="matrix(0.7068 0.7075 -0.7075 0.7068 377.2461 -296.7972)" class="st0" width="1.4" height="22"/>
			
				<rect x="545.9" y="323.9" transform="matrix(0.7068 0.7075 -0.7075 0.7068 397.2513 -288.505)" class="st0" width="1.4" height="22"/>
			
				<rect x="545.9" y="310" transform="matrix(-0.7071 0.7071 -0.7071 -0.7071 1160.1729 161.4954)" class="st0" width="1.4" height="22"/>
			
				<rect x="545.9" y="388.8" transform="matrix(0.7071 0.7071 -0.7071 0.7071 442.8317 -269.4242)" class="st0" width="1.4" height="22"/>
			
				<rect x="545.9" y="402.2" transform="matrix(-0.7075 0.7068 -0.7068 -0.7075 1225.3947 319.1771)" class="st0" width="1.4" height="22"/>
			
				<rect x="545.9" y="375.1" transform="matrix(-0.7075 0.7068 -0.7068 -0.7075 1206.2052 272.8174)" class="st0" width="1.4" height="22"/>
			
				<rect x="545.9" y="415.4" transform="matrix(0.7068 0.7075 -0.7075 0.7068 461.9447 -261.6895)" class="st0" width="1.4" height="22"/>
			
				<rect x="545.9" y="443.7" transform="matrix(0.7068 0.7075 -0.7075 0.7068 481.9496 -253.3973)" class="st0" width="1.4" height="22"/>
			
				<rect x="545.9" y="429.8" transform="matrix(-0.7071 0.7071 -0.7071 -0.7071 1244.8296 365.8747)" class="st0" width="1.4" height="22"/>
			
				<rect x="545.9" y="470.1" transform="matrix(0.7068 0.7075 -0.7075 0.7068 500.6606 -245.6417)" class="st0" width="1.4" height="22"/>
			
				<rect x="545.9" y="456.2" transform="matrix(-0.7071 0.7071 -0.7071 -0.7071 1263.5312 411.0247)" class="st0" width="1.4" height="22"/>
			<rect x="537.6" y="267.8" class="st0" width="2.7" height="281"/>
		</g>
		<g id="pillar-horizontal">
			<rect x="384.3" y="352.4" class="st0" width="152.3" height="1.9"/>
			
				<rect x="404.9" y="350.7" transform="matrix(0.7066 -0.7076 0.7076 0.7066 -134.6937 392.0132)" class="st0" width="1" height="15.4"/>
			
				<rect x="414.3" y="350.7" transform="matrix(0.7061 0.7081 -0.7081 0.7061 375.7026 -188.3578)" class="st0" width="1" height="15.4"/>
			
				<rect x="394.8" y="350.7" transform="matrix(0.7061 0.7081 -0.7081 0.7061 369.9773 -174.563)" class="st0" width="1" height="15.4"/>
			
				<rect x="423.5" y="350.7" transform="matrix(0.7076 -0.7066 0.7066 0.7076 -129.2905 404.4257)" class="st0" width="1" height="15.4"/>
			
				<rect x="443.4" y="350.7" transform="matrix(0.7076 -0.7066 0.7066 0.7076 -123.4865 418.4516)" class="st0" width="1" height="15.4"/>
			
				<rect x="433.6" y="350.7" transform="matrix(0.7066 0.7076 -0.7076 0.7066 380.9926 -202.0152)" class="st0" width="1" height="15.4"/>
			
				<rect x="462.6" y="350.7" transform="matrix(0.7071 -0.7071 0.7071 0.7071 -117.8102 432.451)" class="st0" width="1" height="15.4"/>
			
				<rect x="472" y="350.7" transform="matrix(0.7066 0.7076 -0.7076 0.7066 392.2538 -229.1754)" class="st0" width="1" height="15.4"/>
			
				<rect x="452.9" y="350.7" transform="matrix(0.7066 0.7076 -0.7076 0.7066 386.662 -215.6891)" class="st0" width="1" height="15.4"/>
			
				<rect x="481.3" y="350.7" transform="matrix(0.7071 -0.7071 0.7071 0.7071 -112.3514 445.6298)" class="st0" width="1" height="15.4"/>
			
				<rect x="501.1" y="350.7" transform="matrix(0.7071 -0.7071 0.7071 0.7071 -106.5376 459.6656)" class="st0" width="1" height="15.4"/>
			
				<rect x="491.3" y="350.7" transform="matrix(0.7071 0.7071 -0.7071 0.7071 397.506 -242.7942)" class="st0" width="1" height="15.4"/>
			
				<rect x="519.7" y="350.7" transform="matrix(0.7076 -0.7066 0.7066 0.7076 -101.1797 472.3583)" class="st0" width="1" height="15.4"/>
			
				<rect x="509.9" y="350.7" transform="matrix(0.7066 0.7076 -0.7076 0.7066 403.375 -255.9976)" class="st0" width="1" height="15.4"/>
			<rect x="384.3" y="362.9" class="st0" width="152.3" height="1.9"/>
		</g>
		<g id="pillar-diagonal-2">
			
				<rect x="488.6" y="329.5" transform="matrix(-0.7071 -0.7071 0.7071 -0.7071 548.9059 1038.6904)" class="st0" width="1.9" height="152.3"/>
			<rect x="446.6" y="447.7" class="st0" width="15.4" height="1"/>
			<rect x="460.4" y="433.8" class="st0" width="1" height="15.4"/>
			<rect x="446.6" y="447.6" class="st0" width="1" height="15.4"/>
			<rect x="459.7" y="434.5" class="st0" width="15.4" height="1"/>
			<rect x="473.8" y="420.5" class="st0" width="15.4" height="1"/>
			<rect x="474.1" y="420.2" class="st0" width="1" height="15.4"/>
			<rect x="487.4" y="406.9" class="st0" width="15.4" height="1"/>
			<rect x="501.2" y="393" class="st0" width="1" height="15.4"/>
			<rect x="487.7" y="406.5" class="st0" width="1" height="15.4"/>
			<rect x="500.5" y="393.7" class="st0" width="15.4" height="1"/>
			<rect x="514.6" y="379.7" class="st0" width="15.4" height="1"/>
			<rect x="514.9" y="379.3" class="st0" width="1" height="15.4"/>
			<rect x="527.7" y="366.5" class="st0" width="15.4" height="1"/>
			<rect x="528" y="366.2" class="st0" width="1" height="15.4"/>
			
				<rect x="496.1" y="336.9" transform="matrix(-0.7071 -0.7071 0.7071 -0.7071 556.3511 1056.665)" class="st0" width="1.9" height="152.3"/>
		</g>
		<g id="pillar-diagonal-1">
			
				<rect x="447.3" y="329.5" transform="matrix(0.7071 -0.7071 0.7071 0.7071 -155.565 435.759)" class="st0" width="1.9" height="152.3"/>
			<rect x="475.8" y="447.7" class="st0" width="15.4" height="1"/>
			<rect x="476.4" y="433.8" class="st0" width="1" height="15.4"/>
			<rect x="490.2" y="447.6" class="st0" width="1" height="15.4"/>
			<rect x="462.6" y="434.5" class="st0" width="15.4" height="1"/>
			<rect x="448.6" y="420.5" class="st0" width="15.4" height="1"/>
			<rect x="462.7" y="420.2" class="st0" width="1" height="15.4"/>
			<rect x="435" y="406.9" class="st0" width="15.4" height="1"/>
			<rect x="435.6" y="393" class="st0" width="1" height="15.4"/>
			<rect x="449.1" y="406.5" class="st0" width="1" height="15.4"/>
			<rect x="421.8" y="393.7" class="st0" width="15.4" height="1"/>
			<rect x="407.8" y="379.7" class="st0" width="15.4" height="1"/>
			<rect x="421.9" y="379.3" class="st0" width="1" height="15.4"/>
			<rect x="394.7" y="366.5" class="st0" width="15.4" height="1"/>
			<rect x="408.8" y="366.2" class="st0" width="1" height="15.4"/>
			
				<rect x="439.8" y="336.9" transform="matrix(0.7071 -0.7071 0.7071 0.7071 -163.0104 432.675)" class="st0" width="1.9" height="152.3"/>
		</g>
		<g id="pillar-left">
			<rect x="397.6" y="267.3" class="st0" width="2.7" height="281"/>
			
				<rect x="391" y="268.6" transform="matrix(0.7071 0.7071 -0.7071 0.7071 312.4276 -195.0461)" class="st0" width="1.4" height="22"/>
			
				<rect x="391" y="282" transform="matrix(-0.7071 0.7071 -0.7071 -0.7071 875.7632 223.2006)" class="st0" width="1.4" height="22"/>
			
				<rect x="391" y="295.2" transform="matrix(0.7068 0.7075 -0.7075 0.7068 331.4445 -187.2994)" class="st0" width="1.4" height="22"/>
			
				<rect x="391" y="323.4" transform="matrix(0.7068 0.7075 -0.7075 0.7068 351.4497 -179.0072)" class="st0" width="1.4" height="22"/>
			
				<rect x="391" y="309.5" transform="matrix(-0.7071 0.7071 -0.7071 -0.7071 895.2444 270.2323)" class="st0" width="1.4" height="22"/>
			
				<rect x="391" y="388.3" transform="matrix(0.7071 0.7071 -0.7071 0.7071 397.0842 -159.9802)" class="st0" width="1.4" height="22"/>
			
				<rect x="391" y="401.7" transform="matrix(-0.7075 0.7068 -0.7068 -0.7075 960.4124 427.8598)" class="st0" width="1.4" height="22"/>
			
				<rect x="391" y="374.6" transform="matrix(-0.7075 0.7068 -0.7068 -0.7075 941.2229 381.5001)" class="st0" width="1.4" height="22"/>
			
				<rect x="391" y="414.9" transform="matrix(0.7068 0.7075 -0.7075 0.7068 416.1431 -152.1917)" class="st0" width="1.4" height="22"/>
			
				<rect x="391" y="443.2" transform="matrix(0.7068 0.7075 -0.7075 0.7068 436.148 -143.8995)" class="st0" width="1.4" height="22"/>
			
				<rect x="391" y="429.3" transform="matrix(-0.7071 0.7071 -0.7071 -0.7071 979.9011 474.6116)" class="st0" width="1.4" height="22"/>
			
				<rect x="391" y="469.6" transform="matrix(0.7068 0.7075 -0.7075 0.7068 454.859 -136.1438)" class="st0" width="1.4" height="22"/>
			
				<rect x="391" y="455.7" transform="matrix(-0.7071 0.7071 -0.7071 -0.7071 998.6029 519.7616)" class="st0" width="1.4" height="22"/>
			<rect x="382.6" y="267.3" class="st0" width="2.7" height="281"/>
		</g>
	</g>
	<g id="Hekje-2">
		<rect x="510.5" y="249.4" class="st17" width="67.5" height="1.1"/>
		<g>
			<rect x="510.2" y="236.4" class="st17" width="67.9" height="1.1"/>
			<rect x="510.2" y="242.6" class="st17" width="67.9" height="1.1"/>
			<g>
				<path class="st2" d="M511.6,256.9c0,0.7-0.5,1.2-1.1,1.2l0,0c-0.6,0-1.1-0.5-1.1-1.2v-22.7c0-0.7,0.5-1.2,1.1-1.2l0,0
					c0.6,0,1.1,0.5,1.1,1.2V256.9z"/>
				<circle class="st5" cx="510.5" cy="231.1" r="1.9"/>
			</g>
			<g>
				<path class="st2" d="M545.1,256.9c0,0.7-0.5,1.2-1.1,1.2l0,0c-0.6,0-1.1-0.5-1.1-1.2v-22.7c0-0.7,0.5-1.2,1.1-1.2l0,0
					c0.6,0,1.1,0.5,1.1,1.2V256.9z"/>
				<circle class="st5" cx="544" cy="231.1" r="1.9"/>
			</g>
			<g>
				<path class="st2" d="M579.1,256.9c0,0.7-0.5,1.2-1.1,1.2l0,0c-0.6,0-1.1-0.5-1.1-1.2v-22.7c0-0.7,0.5-1.2,1.1-1.2l0,0
					c0.6,0,1.1,0.5,1.1,1.2V256.9z"/>
				<circle class="st5" cx="578" cy="231.1" r="1.9"/>
			</g>
		</g>
	</g>
	<g id="Hekje">
		<rect x="176.6" y="248.4" class="st17" width="140.4" height="1.1"/>
		<g>
			<rect x="176.6" y="235.4" class="st17" width="140.4" height="1.1"/>
			<rect x="176.6" y="241.6" class="st17" width="140.4" height="1.1"/>
			<g>
				<path class="st2" d="M177.8,255.9c0,0.7-0.5,1.2-1.1,1.2l0,0c-0.6,0-1.1-0.5-1.1-1.2v-22.7c0-0.7,0.5-1.2,1.1-1.2l0,0
					c0.6,0,1.1,0.5,1.1,1.2V255.9z"/>
				<circle class="st5" cx="176.6" cy="230.1" r="1.9"/>
			</g>
			<g>
				<path class="st2" d="M216.6,255.9c0,0.7-0.5,1.2-1.1,1.2l0,0c-0.6,0-1.1-0.5-1.1-1.2v-22.7c0-0.7,0.5-1.2,1.1-1.2l0,0
					c0.6,0,1.1,0.5,1.1,1.2V255.9z"/>
				<circle class="st5" cx="215.5" cy="230.1" r="1.9"/>
			</g>
			<g>
				<path class="st2" d="M250.6,255.9c0,0.7-0.5,1.2-1.1,1.2l0,0c-0.6,0-1.1-0.5-1.1-1.2v-22.7c0-0.7,0.5-1.2,1.1-1.2l0,0
					c0.6,0,1.1,0.5,1.1,1.2V255.9z"/>
				<circle class="st5" cx="249.5" cy="230.1" r="1.9"/>
			</g>
			<g>
				<path class="st2" d="M284.1,255.9c0,0.7-0.5,1.2-1.1,1.2l0,0c-0.6,0-1.1-0.5-1.1-1.2v-22.7c0-0.7,0.5-1.2,1.1-1.2l0,0
					c0.6,0,1.1,0.5,1.1,1.2V255.9z"/>
				<circle class="st5" cx="283" cy="230.1" r="1.9"/>
			</g>
			<g>
				<path class="st2" d="M318.1,255.9c0,0.7-0.5,1.2-1.1,1.2l0,0c-0.6,0-1.1-0.5-1.1-1.2v-22.7c0-0.7,0.5-1.2,1.1-1.2l0,0
					c0.6,0,1.1,0.5,1.1,1.2V255.9z"/>
				<circle class="st5" cx="317" cy="230.1" r="1.9"/>
			</g>
		</g>
	</g>
	<g id="platform">
		<path id="base" class="st0" d="M171.1,274h399.7c0,0,0-3.2,2.5-5.8s7-3.5,7-3.5v-9.2H163.2v9.2c0,0,4.4,2.1,6.2,4
			S171.1,274,171.1,274z"/>
		<path id="gold-middle" class="st5" d="M581.8,264.8c0,0.4-0.7,0.8-1.5,0.8H161.5c-0.9,0-1.5-0.3-1.5-0.8l0,0
			c0-0.4,0.7-0.8,1.5-0.8h418.7C581.1,264,581.8,264.3,581.8,264.8L581.8,264.8z"/>
		<path id="gold-bottom" class="st5" d="M573.5,274c0,0.4-0.7,0.8-1.5,0.8H171.8c-0.8,0-1.5-0.3-1.5-0.8l0,0c0-0.4,0.7-0.8,1.5-0.8
			H572C572.8,273.2,573.5,273.6,573.5,274L573.5,274z"/>
		<path id="gold-top" class="st5" d="M581.8,256.3c0,0.4-0.7,0.8-1.5,0.8H161.5c-0.9,0-1.5-0.4-1.5-0.8l0,0c0-0.4,0.7-0.8,1.5-0.8
			h418.7C581.1,255.5,581.8,255.9,581.8,256.3L581.8,256.3z"/>
	</g>
	<g id="crossings">
		<g id="crossing-right">
			<path class="st0" d="M536.8,377.3l-2.3-2.4c0.6-0.7,0.9-1.6,0.9-2.5c0-2.2-1.8-3.9-3.9-3.9c-0.8,0-1.6,0.3-2.3,0.8l-1.8-1.9v-4.8
				c1.9-0.2,3.4-1.9,3.4-3.9c0-2-1.5-3.6-3.4-3.9v-2.2l9.4-10h18.7v34.8H536.8z"/>
			<path class="st4" d="M555,343v33.8h-18l-1.8-1.9c0.5-0.7,0.7-1.6,0.7-2.4c0-2.4-2-4.4-4.4-4.4c-0.8,0-1.6,0.2-2.2,0.6l-1.4-1.5
				v-4.2c2-0.5,3.4-2.2,3.4-4.3c0-2.1-1.5-3.9-3.4-4.3v-1.6l9.1-9.7H555 M556,342h-19.4l-9.7,10.3v2.9c1.9,0,3.4,1.5,3.4,3.4
				c0,1.9-1.5,3.4-3.4,3.4v5.5l2.3,2.4c0.6-0.6,1.4-0.9,2.3-0.9c1.9,0,3.4,1.5,3.4,3.4c0,1-0.4,1.9-1.1,2.5l2.7,2.9H556V342L556,342
				z"/>
		</g>
		<g id="crossing-left">
			<path class="st0" d="M382.5,377.3v-34.8h18.7l9.4,10v2.2c-1.9,0.2-3.4,1.9-3.4,3.9c0,2,1.5,3.6,3.4,3.9v4.8l-1.8,1.9
				c-0.7-0.5-1.5-0.8-2.3-0.8c-2.2,0-3.9,1.8-3.9,3.9c0,0.9,0.3,1.8,0.9,2.5l-2.3,2.4H382.5z"/>
			<path class="st4" d="M401,343l9.1,9.7v1.6c-2,0.5-3.4,2.2-3.4,4.3c0,2.1,1.5,3.9,3.4,4.3v4.2l-1.4,1.5c-0.7-0.4-1.4-0.6-2.2-0.6
				c-2.4,0-4.4,2-4.4,4.4c0,0.9,0.3,1.7,0.7,2.4l-1.8,1.9h-18V343H401 M401.4,342H382v35.8h19.4l2.7-2.9c-0.7-0.6-1.1-1.5-1.1-2.5
				c0-1.9,1.5-3.4,3.4-3.4c0.9,0,1.7,0.4,2.3,0.9l2.3-2.4V362c-1.9,0-3.4-1.5-3.4-3.4c0-1.9,1.5-3.4,3.4-3.4v-2.9L401.4,342
				L401.4,342z"/>
		</g>
		<path id="middle-cross" class="st11" d="M480.3,426.3c-0.6,0.6-1.4,0.9-2.2,0.9c-1.8,0-3.2-1.4-3.2-3.2c0-0.9,0.4-1.7,0.9-2.2
			l-2.3-2.3h-9.3l-2.3,2.3c0.6,0.6,0.9,1.4,0.9,2.2c0,1.8-1.4,3.2-3.2,3.2c-0.9,0-1.7-0.4-2.2-0.9l-2.5,2.5v9.3l2.5,2.5
			c0.6-0.6,1.4-0.9,2.2-0.9c1.8,0,3.2,1.4,3.2,3.2c0,0.9-0.3,1.7-0.9,2.2l2.3,2.3h9.3l2.3-2.3c-0.6-0.6-0.9-1.4-0.9-2.2
			c0-1.8,1.4-3.2,3.2-3.2c0.9,0,1.7,0.4,2.2,0.9l2.5-2.5v-9.3L480.3,426.3z"/>
	</g>
	<circle id="rondje" class="st16" cx="521.2" cy="288.6" r="8.3"/>
</g>
<g id="Torentje">
	<g id="Tower_1_">
		<rect x="586.3" y="321.4" class="st2" width="20.2" height="12.8"/>
		<rect x="586.3" y="296.1" class="st2" width="20.2" height="6.4"/>
		<rect x="587" y="296.3" class="st21" width="18.8" height="5.7"/>
		<rect x="586.3" y="295.9" class="st2" width="1.4" height="28.7"/>
		<rect x="605.1" y="295.9" class="st2" width="1.4" height="28.7"/>
		<rect x="590.1" y="295.9" class="st2" width="0.7" height="28.7"/>
		<rect x="602.1" y="295.7" class="st2" width="0.7" height="28.9"/>
		<g>
			<path class="st17" d="M595.4,352.6c-0.9-3.9-1.9-7-3-9c-2.3-4.3-6.8-8.4-7.9-9.3h23.8c-1.2,0.9-5.7,4.7-7.9,9.3
				c-1,2.2-2,5.2-2.9,9H595.4z"/>
			<path class="st6" d="M607.9,334.4c-1.5,1.2-5.6,4.8-7.6,9.2c-1,2.1-2,5.1-2.9,8.9h-1.9c-0.9-3.9-1.9-6.9-3-8.9
				c-2.2-4-6.3-7.9-7.7-9.2H607.9 M608.7,334.1h-24.5c0,0,5.5,4.6,8.1,9.5c1.3,2.4,2.3,6,3,9h2.3c0.7-2.9,1.7-6.4,2.9-9
				C603,338.3,608.7,334.1,608.7,334.1L608.7,334.1z"/>
		</g>
		<path class="st4" d="M608.7,334.1c0,0.5-0.4,0.9-0.9,0.9H585c-0.5,0-0.9-0.4-0.9-0.9l0,0c0-0.5,0.4-0.9,0.9-0.9h22.8
			C608.3,333.3,608.7,333.6,608.7,334.1L608.7,334.1z"/>
		<path class="st4" d="M607.4,321.4c0,0.3-0.4,0.5-0.8,0.5h-20.4c-0.4,0-0.8-0.2-0.8-0.5l0,0c0-0.3,0.4-0.5,0.8-0.5h20.4
			C607.1,321,607.4,321.2,607.4,321.4L607.4,321.4z"/>
		<path class="st4" d="M597.4,356.3c-0.1-0.1-0.1-0.2-0.2-0.3c0.5-0.3,0.8-0.8,0.8-1.4c0-0.6-0.3-1.1-0.8-1.4
			c0.1-0.1,0.1-0.2,0.2-0.3h0.2c0.1,0,0.2-0.1,0.2-0.2s-0.1-0.2-0.2-0.2h-2.5c-0.1,0-0.2,0.1-0.2,0.2s0.1,0.2,0.2,0.2h0.2
			c0.1,0.1,0.1,0.2,0.2,0.3c-0.5,0.3-0.8,0.8-0.8,1.4c0,0.6,0.3,1.2,0.8,1.4c-0.1,0.1-0.1,0.2-0.2,0.3c-0.4,0.1-0.7,0.2-0.7,0.3
			c0,0.5,0.4,0.8,0.7,2.1c-0.4,0.1-0.7,0.2-0.7,0.3c0,0.6,0.6-0.1,0.8,2c0.3,2.4,0.8,7.2,0.8,7.2s0.5-4.9,0.9-7.2
			c0.3-2.2,0.8-1.3,0.8-1.9c0-0.1-0.3-0.2-0.7-0.3c0.3-1.4,0.7-1.6,0.7-2.1C598.1,356.5,597.8,356.4,597.4,356.3z"/>
		<path class="st17" d="M586.2,296.3h20.4c0.5,0,1-0.6,1-1.3h-22.3C585.3,295.8,585.7,296.3,586.2,296.3z"/>
		<path class="st20" d="M585.1,295.1h22.6c0.6,0,1.1-0.8,1.1-1.7h-24.7C584.1,294.3,584.6,295.1,585.1,295.1z"/>
		<path class="st4" d="M601.1,282.3c-3.2-6-4.7-6.8-4.7-6.8s0,0,0,0c0,0-1.5,0.8-4.7,6.8c-3.2,6.1-8.8,11.2-8.8,11.2h13.5h0h13.5
			C609.9,293.5,604.3,288.4,601.1,282.3z"/>
		<path class="st7" d="M599,277.2c-0.9-2.1-1.2-11.7-2.5-11.7s-1.7,9.6-2.5,11.7c-1.7,4.2-4.8,7.8-4.8,7.8h7.4h0h7.4
			C603.8,285,600.7,281.5,599,277.2z"/>
		<path class="st7" d="M595.4,266.9c0.1,0.1,0.1,0.2,0.2,0.3c-0.5,0.3,2.1,0.3,1.6,0c0.1-0.1,0.1-0.2,0.2-0.3
			c0.4-0.1,0.7-0.2,0.7-0.3c0-0.5-0.4-0.8-0.7-2.1c0.4-0.1,0.7-0.2,0.7-0.3c0-0.6-0.8,0.1-1.1-2.1c-0.3-2.4-0.6-17.7-0.6-17.7
			s-0.3,15.5-0.6,17.8c-0.3,2.2-1.1,1.3-1.1,2c0,0.1,0.3,0.2,0.7,0.3c-0.3,1.4-0.7,1.6-0.7,2.1C594.7,266.8,595,266.9,595.4,266.9z"
			/>
		<path class="st7" d="M609.2,250.5c0,0-3.3,0.2-7.4,0.2s-7.4-0.2-7.4-0.2s3.3-0.2,7.4-0.2S609.2,250.5,609.2,250.5z"/>
		<path class="st7" d="M609.2,256.3c0,0-4.4,0.2-9.8,0.2c-5.4,0-9.8-0.2-9.8-0.2s4.4-0.2,9.8-0.2
			C604.8,256.1,609.2,256.3,609.2,256.3z"/>
	</g>
	<path id="Houder" class="st0" d="M556,308v33.5c0,0,6.7,0.9,11.2-3.9c4.5-4.8,4.4-9.8,4.4-9.8h4.2c0-0.1,0-0.3,0-0.4
		c0-6.3,4.2-11.5,9.7-12.9V308H556z M575,317.1c-0.6,0.9-1,1.8-1.4,2.7h-6.1v-8.9h7.5V317.1z M566.7,310.9v8.9h-7.4v-8.9H566.7z
		 M566.7,320.7v7.2h-7.4v-7.2H566.7z M559.3,337.3v-8.6h7.4v3.5c-0.3,0.7-0.7,1.4-1.1,2C564,336.5,559.3,337.3,559.3,337.3z
		 M567.5,328.7h0.2c-0.1,0.4-0.1,0.8-0.2,1.2V328.7z M568,325.5c0,0,0,0.9-0.2,2.3h-0.4v-7.2h5.8c-0.9,2.6-1,4.8-1,4.9H568z
		 M575.8,316.1v-5.1h6.8C582.6,310.9,578.4,313,575.8,316.1z"/>
</g>
<g id="SpinningWheel">
	<g id="Wheel">
		<path class="st8" d="M427,182.3c-41.7-6.5-80.9,22-87.4,63.8c-6.5,41.7,22,80.9,63.8,87.4c41.7,6.5,80.9-22,87.4-63.8
			C497.3,227.9,468.8,188.8,427,182.3z M478.9,264.4l-56.2-8.8l45.7-33.4C476.5,234.3,480.5,249.1,478.9,264.4z M428,195.1
			c15.1,3.1,27.9,11.2,37,22.4l-45.7,33.4L428,195.1z M402.5,320.6c-15.3-3.1-28.2-11.5-37.3-22.9l46.1-33.7L402.5,320.6z
			 M380.1,204.3c12-7.9,26.8-11.8,42.1-10.1l-8.7,55.8L380.1,204.3z M417.1,264.9l33.7,46.1c-12.1,8.1-27,12.1-42.5,10.4
			L417.1,264.9z M375.4,207.8l33.4,45.7l-56.2-8.8C355.7,229.6,364.1,216.8,375.4,207.8z M351.7,250.5l56.2,8.8L361.7,293
			C353.7,280.8,349.9,265.9,351.7,250.5z M455.5,307.6l-33.7-46.1l56.2,8.8C475,285.5,466.8,298.5,455.5,307.6z"/>
	</g>
	<path id="wheelCase" class="st14" d="M415.2,175c-45.8,0-82.9,37.1-82.9,82.9s37.1,82.9,82.9,82.9c45.8,0,82.9-37.1,82.9-82.9
		S461,175,415.2,175z M415.2,327.2c-38.3,0-69.3-31-69.3-69.3c0-38.3,31-69.3,69.3-69.3c38.3,0,69.3,31,69.3,69.3
		C484.5,296.1,453.5,327.2,415.2,327.2z"/>
	<g id="turningPoint">
		<circle id="Outer" class="st14" cx="415.2" cy="257.4" r="20.5"/>
		<circle id="Inner" class="st1" cx="415.2" cy="257.4" r="14.1"/>
	</g>
	<path id="Case" class="st0" d="M329.1,257.4c0,47.6,38.6,86.2,86.2,86.2c47.6,0,86.2-38.6,86.2-86.2H329.1z"/>
	<path id="logoPlate" class="st5" d="M345.8,259.2c0,38.3,31.1,69.4,69.4,69.4c38.3,0,69.4-31.1,69.4-69.4H345.8z"/>
	<path id="rand" class="st3" d="M506,258c0,1-0.8,1.7-1.7,1.7H326.2c-1,0-1.7-0.8-1.7-1.7v-1.7c0-1,0.8-1.7,1.7-1.7h178.1
		c1,0,1.7,0.8,1.7,1.7V258z"/>
</g>
<g id="Layer_7" class="st19">
	<path class="st12" d="M-2.7-6.7v595.3h841.9V-6.7H-2.7z M552,464.1c-91.8,0-166.3-74.4-166.3-166.3c0-91.8,74.4-166.3,166.3-166.3
		S718.3,206,718.3,297.8C718.3,389.6,643.8,464.1,552,464.1z"/>
</g>
</svg>
