<?xml version="1.0" encoding="utf-8"?>
<!-- Generator: Adobe Illustrator 16.0.0, SVG Export Plug-In . SVG Version: 6.00 Build 0)  -->
<!DOCTYPE svg PUBLIC "-//W3C//DTD SVG 1.1//EN" "http://www.w3.org/Graphics/SVG/1.1/DTD/svg11.dtd" [
	<!ENTITY ns_flows "http://ns.adobe.com/Flows/1.0/">
	<!ENTITY ns_extend "http://ns.adobe.com/Extensibility/1.0/">
	<!ENTITY ns_ai "http://ns.adobe.com/AdobeIllustrator/10.0/">
	<!ENTITY ns_graphs "http://ns.adobe.com/Graphs/1.0/">
]>
<svg version="1.1" id="medal" xmlns:x="&ns_extend;" xmlns:i="&ns_ai;" xmlns:graph="&ns_graphs;"
	 xmlns="http://www.w3.org/2000/svg" xmlns:xlink="http://www.w3.org/1999/xlink" xmlns:a="http://ns.adobe.com/AdobeSVGViewerExtensions/3.0/"
	 x="0px" y="0px" width="82.8px" height="129.7px" viewBox="0 0 82.8 129.7" style="enable-background:new 0 0 82.8 129.7;"
	 xml:space="preserve">
<style type="text/css">
<![CDATA[
	.st0{fill:url(#SVGID_1_);}
	.st1{fill:url(#SVGID_2_);}
	.st2{fill:#FFFFFF;}
	.st3{fill:url(#vaantje_1_);stroke:#FFFFFF;stroke-width:2;stroke-miterlimit:10;}
]]>
</style>
<linearGradient id="vaantje_1_" gradientUnits="userSpaceOnUse" x1="42.522" y1="124.959" x2="42.522" y2="67.9595">
	<stop  offset="0" style="stop-color:#62B44C"/>
	<stop  offset="0.4464" style="stop-color:#9EC759"/>
	<stop  offset="1" style="stop-color:#DBE072"/>
	<a:midPointStop  offset="0" style="stop-color:#62B44C"/>
	<a:midPointStop  offset="0.5194" style="stop-color:#62B44C"/>
	<a:midPointStop  offset="1" style="stop-color:#DBE072"/>
</linearGradient>
<polygon id="vaantje" class="st3" points="62.2,125 42.5,105 22.9,125 22.9,68 62.2,68 "/>
<g id="outer">
	<linearGradient id="SVGID_1_" gradientUnits="userSpaceOnUse" x1="42.522" y1="80.1348" x2="42.522" y2="6.8848">
		<stop  offset="0" style="stop-color:#F49A61"/>
		<stop  offset="0.3783" style="stop-color:#FAC06E"/>
		<stop  offset="0.7914" style="stop-color:#FFE77A"/>
		<stop  offset="0.8918" style="stop-color:#FEE97A"/>
		<stop  offset="1" style="stop-color:#F8EE7B"/>
		<a:midPointStop  offset="0" style="stop-color:#F49A61"/>
		<a:midPointStop  offset="0.5194" style="stop-color:#F49A61"/>
		<a:midPointStop  offset="0.7914" style="stop-color:#FFE77A"/>
		<a:midPointStop  offset="0.6667" style="stop-color:#FFE77A"/>
		<a:midPointStop  offset="1" style="stop-color:#F8EE7B"/>
	</linearGradient>
	<path class="st0" d="M42.5,80.1c-20.2,0-36.6-16.4-36.6-36.6S22.3,6.9,42.5,6.9c20.2,0,36.6,16.4,36.6,36.6S62.7,80.1,42.5,80.1z"
		/>
	<path class="st2" d="M42.5,7.9c19.7,0,35.6,16,35.6,35.6c0,19.7-16,35.6-35.6,35.6c-19.7,0-35.6-15.9-35.6-35.6
		C6.9,23.8,22.8,7.9,42.5,7.9 M42.5,5.9C21.8,5.9,4.9,22.8,4.9,43.5s16.9,37.6,37.6,37.6c20.7,0,37.6-16.9,37.6-37.6
		S63.3,5.9,42.5,5.9L42.5,5.9z"/>
</g>
<g id="middle">
	<linearGradient id="SVGID_2_" gradientUnits="userSpaceOnUse" x1="42.522" y1="73.291" x2="42.522" y2="13.7285">
		<stop  offset="0" style="stop-color:#F49A61"/>
		<stop  offset="0.3783" style="stop-color:#FAC06E"/>
		<stop  offset="0.7914" style="stop-color:#FFE77A"/>
		<stop  offset="0.8918" style="stop-color:#FEE97A"/>
		<stop  offset="1" style="stop-color:#F8EE7B"/>
		<a:midPointStop  offset="0" style="stop-color:#F49A61"/>
		<a:midPointStop  offset="0.5194" style="stop-color:#F49A61"/>
		<a:midPointStop  offset="0.7914" style="stop-color:#FFE77A"/>
		<a:midPointStop  offset="0.6667" style="stop-color:#FFE77A"/>
		<a:midPointStop  offset="1" style="stop-color:#F8EE7B"/>
	</linearGradient>
	<path class="st1" d="M42.5,73.3c-16.4,0-29.8-13.4-29.8-29.8c0-16.4,13.4-29.8,29.8-29.8c16.4,0,29.8,13.4,29.8,29.8
		C72.3,59.9,58.9,73.3,42.5,73.3z"/>
	<path class="st2" d="M42.5,14.7c15.9,0,28.8,12.9,28.8,28.8c0,15.9-12.9,28.8-28.8,28.8S13.7,59.4,13.7,43.5
		C13.7,27.6,26.6,14.7,42.5,14.7 M42.5,12.7c-17,0-30.8,13.8-30.8,30.8c0,17,13.8,30.8,30.8,30.8c17,0,30.8-13.8,30.8-30.8
		C73.3,26.5,59.5,12.7,42.5,12.7L42.5,12.7z"/>
</g>
</svg>
